<?xml version="1.0" encoding="utf-8"?>
<!-- Generator: Adobe Illustrator 23.0.1, SVG Export Plug-In . SVG Version: 6.00 Build 0)  -->
<svg version="1.1" id="Logo" xmlns="http://www.w3.org/2000/svg" xmlns:xlink="http://www.w3.org/1999/xlink" x="0px" y="0px"
	 width="358.429px" height="286.196px" viewBox="0 0 358.429 286.196" enable-background="new 0 0 358.429 286.196"
	 xml:space="preserve">
<g>
	<path fill="#B23929" d="M180.398,151.657l-54.825,22.712l14.249-28.866c2.682-5.429,5.364-10.859,7.379-14.931l1.936-3.907
		c-8.285-3.396-32.035-13.109-45.623-18.666l-9.288-3.798l54.994-10.74l-25.488-35.808l46.663,15.529l-10.267-47.646l40.358,34.979
		l15.049-43.608l25.768,36.305l42.335-22.963l-21.274,47.402l42.326,25.896l-46.826,7.67l28.575,33.021l-63.018-1.138
		l-26.984,39.444L180.398,151.657z"/>
	<path fill="#F8EF9D" d="M201.875,65.689l-36.921-32l9.481,44l-42.929-14.286l22.857,32.111l-49.714,9.709
		c0,0,48.654,19.895,48.613,19.895s-21.47,43.429-21.47,43.429l50-20.714l15,28.884l25.068-36.644l57.913,1.046l-27.686-31.994
		l44.151-7.232l-37.691-23.06l18.721-41.714l-36.872,20l-23.929-33.714L201.875,65.689z"/>
	<g>
		<g id="XMLID_1_">
			<g>
				<polygon fill="#EDE7DD" points="339.743,215.21 339.743,235.157 329.036,215.736 				"/>
				<polygon fill="#EDE7DD" points="339.743,186.179 339.743,215.21 329.036,215.736 329.036,215.729 329.029,203.711 				"/>
				<polygon fill="#EDE7DD" points="339.743,186.179 329.029,203.711 309.407,192.854 326.107,190.257 				"/>
				<path fill="#EDE7DD" d="M329.036,215.736l10.707,19.421h-20.038c-0.416-1.396-0.136-10.577-0.136-10.577l9.46-8.844H329.036z"/>
				<polygon fill="#EDE7DD" points="329.029,203.711 329.036,215.729 329.029,215.736 313.167,216.508 313.167,201.62 
					309.764,193.692 309.407,192.854 				"/>
				<polygon fill="#EDE7DD" points="329.029,215.736 319.569,224.579 313.167,216.508 				"/>
				<path fill="#EDE7DD" d="M319.705,235.157l-6.681,3.058l-1.825,0.708l-9.441-15.733l11.408-6.681l6.402,8.071
					C319.569,224.579,319.29,233.761,319.705,235.157z"/>
				<polygon fill="#EDE7DD" points="313.167,201.62 313.167,216.508 301.758,223.19 295.077,199.776 309.764,193.692 				"/>
				<polygon fill="#EDE7DD" points="301.758,223.19 311.199,238.923 297.999,244.059 295.07,239.247 282.415,218.456 				"/>
				<polygon fill="#EDE7DD" points="309.407,192.854 309.764,193.692 295.077,199.776 274.065,187.705 275.039,175.323 
					300.505,187.848 				"/>
				<polygon fill="#B3996B" points="297.999,244.059 305.329,254.448 296.239,263.538 275.273,256.117 295.07,239.247 				"/>
				<polygon fill="#EDE7DD" points="295.077,199.776 301.758,223.19 282.415,218.456 280.376,212.704 				"/>
				<polygon fill="#B3996B" points="296.239,263.538 281.954,269.291 275.273,256.117 				"/>
				<path fill="#EDE7DD" d="M295.077,199.776l-14.7,12.928l-0.604-0.234l-3.013-1.156l-0.058-0.344l-1.338-7.539
					c0,0-0.214-0.149-0.552-0.39h-0.007c-1.104-0.773-3.493-2.441-3.708-2.578c-0.279-0.188-3.526,0.37-3.526,0.37l-2.221-6.402
					l8.714-6.727L295.077,199.776z"/>
				<polygon fill="#B3996B" points="282.415,218.456 295.07,239.247 274.487,240.721 277.266,237.202 279.772,234.04 
					279.772,228.339 277.24,226.527 275.877,225.553 282,221.099 				"/>
				<polygon fill="#B3996B" points="295.07,239.247 275.273,256.117 268.598,242.949 268.669,242.695 274.487,240.721 				"/>
				<polygon fill="#EDE7DD" points="280.376,212.704 282.415,218.456 282,221.099 275.877,225.553 273.513,225.346 272.117,221.307 
					274,216.372 279.772,212.476 279.772,212.47 				"/>
				<polygon fill="#EDE7DD" points="279.772,228.339 279.772,234.04 277.266,237.202 273.877,238.306 270.507,236.358 
					270.916,232.28 277.24,226.527 				"/>
				<polygon fill="#EDE7DD" points="271.844,214.801 276.695,210.97 276.701,210.97 276.76,211.314 279.772,212.47 279.772,212.476 
					274,216.372 272.117,221.307 273.513,225.346 264.747,220.404 				"/>
				<polygon fill="#EDE7DD" points="277.266,237.202 274.487,240.721 268.669,242.695 270.507,236.358 273.877,238.306 				"/>
				<polygon fill="#EDE7DD" points="277.24,226.527 270.916,232.28 269.039,231.254 275.877,225.553 				"/>
				<path fill="#EDE7DD" d="M275.364,203.431l1.338,7.539h-0.007l-4.85,3.831l-4.662-2.188l-0.974-4.175l2.084-3.13l6.513-2.266
					h0.007C275.149,203.282,275.364,203.431,275.364,203.431z"/>
				<polygon fill="#EDE7DD" points="275.877,225.553 269.039,231.254 268.598,231.014 273.513,225.346 				"/>
				<polygon fill="#EDE7DD" points="275.039,175.323 274.065,187.705 250.742,187.432 243.119,180.426 248.742,178.387 
					261.748,176.874 				"/>
				<path fill="#EDE7DD" d="M274.805,203.042l-6.513,2.266l-6.558-0.416l5.837-4.058c0,0,3.247-0.558,3.526-0.37
					C271.312,200.6,273.701,202.269,274.805,203.042z"/>
				<polygon fill="#EDE7DD" points="274.065,187.705 265.351,194.432 260.079,194.659 254.404,194.899 250.742,187.432 				"/>
				<polygon fill="#EDE7DD" points="273.513,225.346 268.598,231.014 266.695,233.209 250.742,222.891 251.449,222.761 
					251.456,222.768 251.462,222.761 264.747,220.404 				"/>
				<polygon fill="#EDE7DD" points="267.182,212.613 271.844,214.801 264.747,220.404 				"/>
				<polygon fill="#EDE7DD" points="270.916,232.28 270.507,236.358 268.669,242.695 268.345,242.806 256.534,236.092 
					266.695,233.209 269.039,231.254 				"/>
				<polygon fill="#EDE7DD" points="268.345,242.806 254.404,247.539 256.534,236.092 				"/>
				<polygon fill="#EDE7DD" points="268.293,205.308 266.208,208.438 267.182,212.613 260.436,211.911 260.436,211.905 
					261.735,204.892 				"/>
				<polygon fill="#EDE7DD" points="265.351,194.432 267.572,200.834 261.735,204.892 261.728,204.892 258.546,204.892 
					254.404,202.042 254.936,198.49 260.079,194.659 				"/>
				<polygon fill="#EDE7DD" points="267.182,212.613 264.747,220.404 251.462,222.761 260.436,211.911 				"/>
				<polygon fill="#EDE7DD" points="266.695,233.209 256.534,236.092 255.423,236.403 246.521,237.799 244.151,237.105 
					250.742,222.891 				"/>
				<polygon fill="#B3996B" points="261.728,176.719 261.748,176.874 248.742,178.387 254.936,164.544 				"/>
				<polygon fill="#EDE7DD" points="261.735,204.892 260.436,211.905 251.456,210.97 260.429,205.795 261.728,204.892 				"/>
				<polygon fill="#EDE7DD" points="261.728,204.892 260.429,205.795 251.456,210.97 254.404,202.042 258.546,204.892 				"/>
				<polygon fill="#EDE7DD" points="260.436,211.905 260.436,211.911 251.462,222.761 251.449,222.761 241.807,215.21 
					241.716,214.989 251.456,210.97 				"/>
				<polygon fill="#EDE7DD" points="260.079,194.659 254.936,198.49 252.086,197.029 254.404,194.899 				"/>
				<polygon fill="#EDE7DD" points="256.534,236.092 254.404,247.539 246.521,244.617 246.521,237.799 255.423,236.403 				"/>
				<polygon fill="#EDE7DD" points="254.936,198.49 254.404,202.042 251.456,210.97 243.924,211.256 241.508,206.769 
					252.086,197.029 				"/>
				<polygon fill="#B3996B" points="254.936,164.544 248.742,178.387 243.119,180.426 238.385,189.172 237.801,190.257 
					233.912,182.874 220.821,158.044 254.93,164.544 				"/>
				<polygon fill="#B3996B" points="234.476,127.89 254.93,164.544 220.821,158.044 				"/>
				<polygon fill="#EDE7DD" points="250.742,187.432 254.404,194.899 252.086,197.029 241.508,206.769 236.918,201.276 
					242.482,193.692 				"/>
				<polygon fill="#EDE7DD" points="251.456,210.97 241.716,214.989 231.632,219.151 233.912,211.639 243.924,211.256 				"/>
				<polygon fill="#EDE7DD" points="251.449,222.761 250.742,222.891 249.859,223.047 240.398,226.527 236.918,226.527 
					241.807,215.21 				"/>
				<polygon fill="#EDE7DD" points="250.742,222.891 244.151,237.105 239.703,230.982 240.398,226.527 249.859,223.047 				"/>
				<polygon fill="#EDE7DD" points="250.742,187.432 242.482,193.692 238.385,189.172 243.119,180.426 				"/>
				<polygon fill="#3D393B" points="229.821,74.309 244.846,99.171 228.775,93.269 				"/>
				<polygon fill="#3D393B" points="244.846,99.171 227.25,108.554 216.464,101.892 				"/>
				<polygon fill="#3D393B" points="244.846,99.171 216.464,101.892 206.166,102.879 228.775,93.269 				"/>
				<polygon fill="#EDE7DD" points="241.508,206.769 243.924,211.256 233.912,211.639 223.146,207.464 229.204,207.464 				"/>
				<polygon fill="#EDE7DD" points="238.385,189.172 242.482,193.692 236.918,201.276 231.697,202.457 229.204,202.457 
					231.191,199.639 237.801,190.257 				"/>
				<polygon fill="#EDE7DD" points="241.716,214.989 241.807,215.21 236.918,226.527 231.632,219.151 				"/>
				<polygon fill="#EDE7DD" points="236.918,201.276 241.508,206.769 229.204,207.464 229.204,202.457 231.697,202.457 				"/>
				<polygon fill="#EDE7DD" points="233.912,182.874 237.801,190.257 231.191,199.639 224.503,197.029 				"/>
				<polygon fill="#B3996B" points="234.476,127.89 220.821,158.044 201.874,122.092 				"/>
				<polygon fill="#B3996B" points="224.503,110.021 234.476,127.89 201.874,122.092 206.543,119.599 				"/>
				<polygon fill="#EDE7DD" points="231.191,199.639 229.204,202.457 229.204,207.464 223.146,207.464 224.503,197.029 				"/>
				<polygon fill="#3D393B" points="229.821,74.309 228.775,93.269 206.166,102.879 206.166,102.801 212.218,95.516 				"/>
				<polygon fill="#3D393B" points="229.821,74.309 212.218,95.516 207.523,85.86 				"/>
				<polygon fill="#3D393B" points="227.25,108.554 224.503,110.021 206.543,119.599 206.166,102.879 216.464,101.892 				"/>
				<polygon fill="#3D393B" points="207.523,85.86 212.218,95.516 206.166,102.801 190.589,94.626 				"/>
				<polygon fill="#3D393B" points="206.166,102.879 206.543,119.599 201.874,122.092 180.843,133.306 206.069,102.918 
					206.153,102.885 				"/>
				<polygon fill="#3D393B" points="206.166,102.801 206.095,102.892 167.487,106.593 190.589,94.626 				"/>
				<polygon fill="#3D393B" points="206.095,102.892 206.069,102.918 180.843,113.638 167.487,106.593 				"/>
				<polygon fill="#3D393B" points="206.069,102.918 180.843,133.306 180.843,113.638 				"/>
				<polygon fill="#3D393B" points="180.843,113.638 180.843,133.306 167.487,106.593 				"/>
			</g>
			<g>
				<polygon fill="none" stroke="#3D393B" stroke-width="0.5" stroke-linecap="round" stroke-miterlimit="10" points="
					229.821,74.309 207.523,85.86 190.589,94.626 167.487,106.593 180.843,133.306 201.874,122.092 206.543,119.599 
					224.503,110.021 227.25,108.554 244.846,99.171 				"/>
				<polyline fill="none" stroke="#EDE7DD" stroke-width="0.5" stroke-linecap="round" stroke-miterlimit="10" points="
					206.153,102.885 206.069,102.918 180.843,113.638 				"/>
				<polyline fill="none" stroke="#EDE7DD" stroke-width="0.5" stroke-linecap="round" stroke-miterlimit="10" points="
					228.775,93.269 244.846,99.171 216.464,101.892 206.166,102.879 206.153,102.885 206.095,102.892 167.487,106.593 
					180.843,113.638 180.843,133.306 206.069,102.918 206.095,102.892 206.166,102.801 212.218,95.516 229.821,74.309 
					228.775,93.269 206.166,102.879 				"/>
				<polyline fill="none" stroke="#EDE7DD" stroke-width="0.5" stroke-linecap="round" stroke-miterlimit="10" points="
					206.543,119.599 206.166,102.879 206.166,102.801 190.589,94.626 				"/>
				
					<line fill="none" stroke="#EDE7DD" stroke-width="0.5" stroke-linecap="round" stroke-miterlimit="10" x1="207.523" y1="85.86" x2="212.218" y2="95.516"/>
				
					<line fill="none" stroke="#EDE7DD" stroke-width="0.5" stroke-linecap="round" stroke-miterlimit="10" x1="216.464" y1="101.892" x2="227.25" y2="108.554"/>
				<polyline fill="none" stroke="#3D393B" stroke-width="0.5" stroke-linecap="round" stroke-miterlimit="10" points="
					254.936,164.544 248.742,178.387 243.119,180.426 238.385,189.172 237.801,190.257 233.912,182.874 220.821,158.044 
					201.874,122.092 234.476,127.89 220.821,158.044 254.93,164.544 				"/>
				<polyline fill="none" stroke="#3D393B" stroke-width="0.5" stroke-linecap="round" stroke-miterlimit="10" points="
					224.503,110.021 234.476,127.89 254.93,164.544 254.936,164.544 261.728,176.719 				"/>
				<path fill="none" stroke="#3D393B" stroke-width="0.5" stroke-linecap="round" stroke-miterlimit="10" d="M274.805,203.042
					c-1.104-0.773-3.493-2.441-3.708-2.578c-0.279-0.188-3.526,0.37-3.526,0.37l-2.221-6.402l-5.272,0.227l-5.675,0.24l-3.662-7.467
					"/>
				<path fill="none" stroke="#3D393B" stroke-width="0.5" stroke-linecap="round" stroke-miterlimit="10" d="M248.742,178.387
					l13.006-1.513l13.291-1.552l25.466,12.525l8.902,5.006l16.7-2.597l13.636-4.078v29.031v19.947h-20.038l-6.681,3.058
					l-1.825,0.708l-13.201,5.136l-2.928-4.811l-12.655-20.791l-2.039-5.753l-0.604-0.234l-3.013-1.156l-0.058-0.344l-1.338-7.539
					c0,0-0.214-0.149-0.552-0.39"/>
				<polyline fill="none" stroke="#3D393B" stroke-width="0.5" stroke-linecap="round" stroke-miterlimit="10" points="
					268.598,242.949 275.273,256.117 281.954,269.291 296.239,263.538 305.329,254.448 297.999,244.059 				"/>
				<polyline fill="none" stroke="#3D393B" stroke-width="0.5" stroke-linecap="round" stroke-miterlimit="10" points="
					237.801,190.257 231.191,199.639 229.204,202.457 229.204,207.464 241.508,206.769 252.086,197.029 254.404,194.899 				"/>
				<polyline fill="none" stroke="#3D393B" stroke-width="0.5" stroke-linecap="round" stroke-miterlimit="10" points="
					233.912,182.874 224.503,197.029 223.146,207.464 233.912,211.639 231.632,219.151 236.918,226.527 240.398,226.527 
					239.703,230.982 244.151,237.105 246.521,237.799 246.521,244.617 254.404,247.539 268.345,242.806 268.669,242.695 
					274.487,240.721 277.266,237.202 279.772,234.04 279.772,228.339 277.24,226.527 275.877,225.553 269.039,231.254 
					266.695,233.209 256.534,236.092 255.423,236.403 246.521,237.799 				"/>
				<polyline fill="none" stroke="#3D393B" stroke-width="0.5" stroke-linecap="round" stroke-miterlimit="10" points="
					276.695,210.97 271.844,214.801 264.747,220.404 251.462,222.761 251.449,222.761 250.742,222.891 249.859,223.047 
					240.398,226.527 				"/>
				
					<line fill="none" stroke="#3D393B" stroke-width="0.5" stroke-linecap="round" stroke-miterlimit="10" x1="261.735" y1="204.892" x2="267.572" y2="200.834"/>
				<polyline fill="none" stroke="#3D393B" stroke-width="0.5" stroke-linecap="round" stroke-miterlimit="10" points="
					233.912,211.639 243.924,211.256 251.456,210.97 260.429,205.795 261.728,204.892 				"/>
				<polyline fill="none" stroke="#3D393B" stroke-width="0.5" stroke-linecap="round" stroke-miterlimit="10" points="
					274.812,203.042 274.805,203.042 268.293,205.308 266.208,208.438 267.182,212.613 271.844,214.801 271.851,214.801 				"/>
				<polyline fill="none" stroke="#3D393B" stroke-width="0.5" stroke-linecap="round" stroke-miterlimit="10" points="
					279.772,212.476 274,216.372 272.117,221.307 273.513,225.346 275.877,225.553 282,221.099 282.415,218.456 301.758,223.19 
					313.167,216.508 329.029,215.736 329.036,215.736 339.743,215.21 				"/>
				<polyline fill="none" stroke="#3D393B" stroke-width="0.5" stroke-linecap="round" stroke-miterlimit="10" points="
					277.24,226.527 270.916,232.28 270.507,236.358 273.877,238.306 277.266,237.202 				"/>
				<polyline fill="none" stroke="#3D393B" stroke-width="0.5" stroke-linecap="round" stroke-miterlimit="10" points="
					238.385,189.172 242.482,193.692 236.918,201.276 231.697,202.457 229.204,202.457 				"/>
				<path fill="none" stroke="#3D393B" stroke-width="0.5" stroke-linecap="round" stroke-miterlimit="10" d="M339.743,186.179
					l-10.714,17.531l-19.622-10.857l0.357,0.838l3.402,7.928v14.889l6.402,8.071c0,0-0.279,9.181,0.136,10.577"/>
				<polyline fill="none" stroke="#3D393B" stroke-width="0.5" stroke-linecap="round" stroke-miterlimit="10" points="
					339.743,235.157 329.036,215.736 329.036,215.729 329.029,203.711 				"/>
				<polyline fill="none" stroke="#3D393B" stroke-width="0.5" stroke-linecap="round" stroke-miterlimit="10" points="
					319.569,224.579 329.029,215.736 329.036,215.729 				"/>
				<polyline fill="none" stroke="#3D393B" stroke-width="0.5" stroke-linecap="round" stroke-miterlimit="10" points="
					242.482,193.692 250.742,187.432 243.119,180.426 				"/>
				<polyline fill="none" stroke="#3D393B" stroke-width="0.5" stroke-linecap="round" stroke-miterlimit="10" points="
					250.742,187.432 274.065,187.705 295.077,199.776 301.758,223.19 311.199,238.923 				"/>
				<polyline fill="none" stroke="#3D393B" stroke-width="0.5" stroke-linecap="round" stroke-miterlimit="10" points="
					309.764,193.692 295.077,199.776 280.376,212.704 				"/>
				<polyline fill="none" stroke="#3D393B" stroke-width="0.5" stroke-linecap="round" stroke-miterlimit="10" points="
					265.351,194.432 274.065,187.705 275.039,175.323 				"/>
				<polyline fill="none" stroke="#3D393B" stroke-width="0.5" stroke-linecap="round" stroke-miterlimit="10" points="
					274.487,240.721 295.07,239.247 275.273,256.117 296.239,263.538 				"/>
				<polyline fill="none" stroke="#3D393B" stroke-width="0.5" stroke-linecap="round" stroke-miterlimit="10" points="
					260.436,211.911 267.182,212.613 264.747,220.404 273.513,225.346 268.598,231.014 266.695,233.209 250.742,222.891 
					244.151,237.105 				"/>
				<polyline fill="none" stroke="#3D393B" stroke-width="0.5" stroke-linecap="round" stroke-miterlimit="10" points="
					231.632,219.151 241.716,214.989 251.456,210.97 260.436,211.905 				"/>
				<polyline fill="none" stroke="#3D393B" stroke-width="0.5" stroke-linecap="round" stroke-miterlimit="10" points="
					236.918,226.527 241.807,215.21 251.449,222.761 251.456,222.768 251.462,222.761 260.436,211.911 260.436,211.905 
					261.735,204.892 261.728,204.892 258.546,204.892 254.404,202.042 254.936,198.49 260.079,194.659 				"/>
				
					<line fill="none" stroke="#3D393B" stroke-width="0.5" stroke-linecap="round" stroke-miterlimit="10" x1="268.293" y1="205.308" x2="261.735" y2="204.892"/>
				<polyline fill="none" stroke="#3D393B" stroke-width="0.5" stroke-linecap="round" stroke-miterlimit="10" points="
					236.918,201.276 241.508,206.769 243.924,211.256 				"/>
				<polyline fill="none" stroke="#3D393B" stroke-width="0.5" stroke-linecap="round" stroke-miterlimit="10" points="
					254.404,247.539 256.534,236.092 268.345,242.806 268.598,242.949 268.669,242.695 270.507,236.358 				"/>
				<polyline fill="none" stroke="#3D393B" stroke-width="0.5" stroke-linecap="round" stroke-miterlimit="10" points="
					270.916,232.28 269.039,231.254 268.598,231.014 				"/>
				
					<line fill="none" stroke="#3D393B" stroke-width="0.5" stroke-linecap="round" stroke-miterlimit="10" x1="224.503" y1="197.029" x2="231.191" y2="199.639"/>
				
					<line fill="none" stroke="#3D393B" stroke-width="0.5" stroke-linecap="round" stroke-miterlimit="10" x1="223.146" y1="207.464" x2="229.204" y2="207.464"/>
				
					<line fill="none" stroke="#3D393B" stroke-width="0.5" stroke-linecap="round" stroke-miterlimit="10" x1="254.404" y1="202.042" x2="251.456" y2="210.97"/>
				
					<line fill="none" stroke="#3D393B" stroke-width="0.5" stroke-linecap="round" stroke-miterlimit="10" x1="252.086" y1="197.029" x2="254.936" y2="198.49"/>
			</g>
		</g>
	</g>
	<g>
		<path fill="#3D393B" d="M59.566,221.202c0,2.115-0.404,4.099-1.211,5.952c-0.808,1.853-1.907,3.475-3.297,4.864
			c-1.39,1.391-3.012,2.489-4.865,3.297c-1.854,0.809-3.837,1.212-5.952,1.212H18.687V185.42h25.554
			c2.115,0,4.099,0.404,5.952,1.212c1.853,0.808,3.475,1.906,4.865,3.296c1.39,1.391,2.489,3.012,3.297,4.865
			c0.807,1.854,1.211,3.838,1.211,5.952c0,0.95-0.131,1.925-0.392,2.922c-0.262,0.998-0.63,1.961-1.105,2.888
			c-0.476,0.926-1.046,1.77-1.711,2.529c-0.666,0.761-1.402,1.391-2.209,1.89c0.832,0.451,1.58,1.063,2.245,1.835
			c0.665,0.772,1.235,1.622,1.711,2.549c0.475,0.927,0.837,1.895,1.087,2.904S59.566,220.252,59.566,221.202z M28.916,205.877
			h15.325c0.713,0,1.378-0.13,1.996-0.392c0.618-0.262,1.158-0.624,1.622-1.087c0.463-0.464,0.825-1.01,1.087-1.64
			c0.261-0.63,0.392-1.301,0.392-2.014s-0.131-1.378-0.392-1.996c-0.262-0.617-0.624-1.158-1.087-1.622
			c-0.463-0.463-1.004-0.825-1.622-1.087c-0.618-0.261-1.283-0.392-1.996-0.392H28.916V205.877z M28.916,226.299h15.325
			c0.713,0,1.378-0.131,1.996-0.393c0.618-0.261,1.158-0.623,1.622-1.087c0.463-0.463,0.825-1.003,1.087-1.621
			c0.261-0.618,0.392-1.283,0.392-1.996s-0.131-1.378-0.392-1.996c-0.262-0.617-0.624-1.158-1.087-1.621
			c-0.463-0.464-1.004-0.825-1.622-1.087c-0.618-0.262-1.283-0.393-1.996-0.393H28.916V226.299z"/>
		<path fill="#3D393B" d="M117.375,211.187c0,2.423-0.315,4.758-0.944,7.003c-0.63,2.245-1.515,4.349-2.655,6.309
			s-2.519,3.748-4.134,5.363c-1.616,1.616-3.398,3-5.346,4.152s-4.051,2.044-6.308,2.673c-2.257,0.63-4.598,0.944-7.021,0.944
			c-2.424,0-4.758-0.314-7.003-0.944c-2.245-0.629-4.348-1.521-6.308-2.673c-1.96-1.152-3.749-2.536-5.364-4.152
			c-1.616-1.615-3-3.403-4.152-5.363c-1.153-1.96-2.043-4.063-2.673-6.309c-0.63-2.245-0.944-4.58-0.944-7.003
			c0-2.424,0.314-4.764,0.944-7.021c0.629-2.257,1.52-4.359,2.673-6.308c1.152-1.948,2.536-3.73,4.152-5.347
			c1.615-1.615,3.403-2.993,5.364-4.134c1.96-1.141,4.063-2.025,6.308-2.655c2.246-0.629,4.58-0.944,7.003-0.944
			c2.423,0,4.764,0.315,7.021,0.944c2.257,0.63,4.36,1.515,6.308,2.655s3.73,2.519,5.346,4.134c1.616,1.616,2.994,3.398,4.134,5.347
			s2.025,4.051,2.655,6.308C117.06,206.424,117.375,208.764,117.375,211.187z M107.218,211.187c0-2.233-0.428-4.342-1.283-6.326
			c-0.855-1.983-2.014-3.707-3.475-5.168c-1.461-1.461-3.184-2.619-5.167-3.475c-1.984-0.855-4.093-1.283-6.326-1.283
			c-2.258,0-4.372,0.428-6.344,1.283s-3.695,2.014-5.167,3.475c-1.474,1.461-2.638,3.185-3.493,5.168
			c-0.855,1.984-1.283,4.093-1.283,6.326s0.428,4.33,1.283,6.29c0.855,1.96,2.019,3.677,3.493,5.15
			c1.473,1.474,3.195,2.637,5.167,3.492s4.086,1.283,6.344,1.283c2.233,0,4.342-0.428,6.326-1.283
			c1.983-0.855,3.707-2.019,5.167-3.492c1.461-1.474,2.62-3.19,3.475-5.15S107.218,213.421,107.218,211.187z"/>
		<path fill="#3D393B" d="M164.954,236.527h-10.941l-19.709-33.644v33.644h-10.229V185.42h10.941l19.709,33.68v-33.68h10.229
			V236.527z"/>
		<path fill="#3D393B" d="M184.663,236.527h-10.229V185.42h10.229v25.554l19.032-25.554h11.619l-16.145,21.562l16.145,29.546
			h-11.619l-11.227-20.671l-7.805,10.442V236.527z"/>
	</g>
</g>
</svg>
