<?xml version="1.0" encoding="utf-8"?>
<!-- Generator: Adobe Illustrator 23.0.1, SVG Export Plug-In . SVG Version: 6.00 Build 0)  -->
<svg version="1.1" id="Logo" xmlns="http://www.w3.org/2000/svg" xmlns:xlink="http://www.w3.org/1999/xlink" x="0px" y="0px"
	 width="335.412px" height="321px" viewBox="0 0 335.412 321" enable-background="new 0 0 335.412 321" xml:space="preserve">
<g>
	<g id="XMLID_5_">
		<g>
			<polygon fill="#C49E76" points="257.079,214.809 257.079,225.547 252.943,218.044 			"/>
			<polygon fill="#C49E76" points="257.079,205.433 257.079,214.809 252.943,218.044 246.286,205.967 257.073,205.433 			"/>
			<path fill="#F7D2B0" d="M257.079,176.159v29.274h-0.006c-0.882,0-10.793-11.591-10.793-11.591v-0.006L257.079,176.159z"/>
			<polygon fill="#F7D2B0" points="257.079,176.159 246.28,193.836 226.49,182.893 243.333,180.27 			"/>
			<path fill="#C49E76" d="M252.943,218.044l4.136,7.503h-20.204c-0.42-1.405-0.138-10.666-0.138-10.666L252.943,218.044z"/>
			<path fill="#C49E76" d="M257.073,205.433l-10.787,0.534v-0.012l-0.006-12.113C246.28,193.842,256.191,205.433,257.073,205.433z"
				/>
			<polygon fill="#C49E76" points="246.286,205.967 252.943,218.044 236.736,214.881 246.28,205.967 			"/>
			<polygon fill="#EFCA9E" points="246.28,193.842 246.286,205.955 246.28,205.967 230.284,206.741 230.284,205.433 246.28,193.836 
							"/>
			<polygon fill="#C49E76" points="246.28,193.836 230.284,205.433 230.284,191.729 			"/>
			<polygon fill="#F7D2B0" points="246.28,193.836 230.284,191.729 226.85,183.734 226.49,182.893 			"/>
			<polygon fill="#C49E76" points="246.28,205.967 236.736,214.881 230.284,206.741 			"/>
			<path fill="#C49E76" d="M236.874,225.547l-6.735,3.085l-1.843,0.714l8.44-14.466
				C236.736,214.881,236.454,224.143,236.874,225.547z"/>
			<polygon fill="#C49E76" points="230.284,206.741 236.736,214.881 228.297,229.347 218.777,213.482 			"/>
			<polygon fill="#EFCA9E" points="230.284,205.433 230.284,206.741 218.777,213.482 212.042,189.868 			"/>
			<polygon fill="#EFCA9E" points="230.284,191.729 230.284,205.433 218.987,186.993 226.85,183.734 			"/>
			<polygon fill="#EFCA9E" points="218.987,186.993 230.284,205.433 212.042,189.868 			"/>
			<polygon fill="#C49E76" points="218.777,213.482 228.297,229.347 208.765,211.033 			"/>
			<polygon fill="#C49E76" points="228.297,229.347 214.989,234.527 208.759,211.033 208.765,211.033 			"/>
			<polygon fill="#F7D2B0" points="226.49,182.893 226.85,183.734 218.987,186.993 218.777,186.645 191.838,165.216 
				214.095,176.159 217.516,177.845 			"/>
			<polygon fill="#B3996B" points="214.989,234.527 222.378,245.001 213.213,254.167 192.072,246.682 212.036,229.671 			"/>
			<polygon fill="#F7D2B0" points="218.777,186.645 218.987,186.993 212.042,189.868 205.091,185.877 190.853,177.701 
				191.838,165.216 			"/>
			<polygon fill="#EFCA9E" points="212.042,189.868 218.777,213.482 208.765,211.033 208.759,211.027 			"/>
			<polygon fill="#C49E76" points="208.759,211.033 214.989,234.527 212.036,229.671 199.275,208.71 208.759,211.027 			"/>
			<polygon fill="#8E7349" points="213.213,254.167 198.807,259.966 192.072,246.682 			"/>
			<polygon fill="#EFCA9E" points="212.042,189.868 208.759,211.027 204.113,196.843 			"/>
			<polygon fill="#EFCA9E" points="212.042,189.868 204.113,196.843 205.091,185.877 			"/>
			<polygon fill="#8E7349" points="199.275,208.71 212.036,229.671 191.279,231.16 194.083,227.612 196.61,224.419 196.61,218.674 
				194.059,216.844 192.684,215.865 198.855,211.375 			"/>
			<polygon fill="#D8BF95" points="212.036,229.671 192.072,246.682 185.343,233.405 185.415,233.146 191.279,231.16 			"/>
			<polygon fill="#EDE7DD" points="208.759,211.027 208.765,211.033 208.759,211.033 			"/>
			<polygon fill="#C49E76" points="204.113,196.843 208.759,211.027 199.275,208.71 197.216,202.906 			"/>
			<path fill="#C49E76" d="M205.091,185.877l-0.978,10.967l-6.897,6.063l-0.606-0.234l-3.037-1.164l-0.06-0.348l-1.351-7.599
				c0,0-0.216-0.156-0.552-0.396L205.091,185.877z"/>
			<path fill="#C49E76" d="M205.091,185.877l-13.482,7.287h-0.006c-1.116-0.78-3.523-2.461-3.74-2.599l2.989-12.863L205.091,185.877
				z"/>
			<polygon fill="#F4EFE9" points="197.216,202.906 199.275,208.71 198.855,211.375 192.684,215.865 190.295,215.655 
				188.89,211.579 190.787,206.603 196.61,202.678 196.61,202.672 			"/>
			<polygon fill="#F4EFE9" points="196.61,218.674 196.61,224.419 194.083,227.612 190.667,228.723 187.264,226.76 187.678,222.648 
				194.059,216.844 			"/>
			<polygon fill="#F7D2B0" points="196.61,202.672 196.61,202.678 190.787,206.603 188.89,211.579 190.295,215.655 181.459,210.673 
				188.614,205.025 188.62,205.025 193.506,201.159 193.512,201.159 193.572,201.507 			"/>
			<polygon fill="#C49E76" points="194.083,227.612 191.279,231.16 185.415,233.146 187.264,226.76 190.667,228.723 			"/>
			<polygon fill="#C49E76" points="194.059,216.844 187.678,222.648 185.787,221.616 192.684,215.865 			"/>
			<path fill="#F4EFE9" d="M192.162,193.56l1.351,7.599h-0.006l-4.886,3.866h-0.006l-4.7-2.209l-0.984-4.208l2.107-3.157
				l6.567-2.287h0.006C191.946,193.404,192.162,193.56,192.162,193.56z"/>
			<polygon fill="#C49E76" points="192.684,215.865 185.787,221.616 185.343,221.37 190.295,215.655 			"/>
			<polygon fill="#C49E76" points="191.838,165.216 190.853,177.701 172.72,171.026 			"/>
			<polygon fill="#EFCA9E" points="191.838,165.216 172.72,171.026 165.319,168.307 178.434,166.777 			"/>
			<path fill="#F7D2B0" d="M191.604,193.164l-6.567,2.287l-6.615-0.42l5.882-4.094c0,0,3.277-0.564,3.559-0.372
				C188.08,190.703,190.487,192.383,191.604,193.164z"/>
			<path fill="#EFCA9E" d="M190.853,177.701l-2.989,12.863c-0.282-0.192-3.559,0.372-3.559,0.372l-2.239-6.453L190.853,177.701z"/>
			<polygon fill="#C49E76" points="190.853,177.701 182.066,184.484 176.753,184.712 171.027,184.952 167.335,177.425 			"/>
			<polygon fill="#EFCA9E" points="190.853,177.701 167.335,177.425 172.72,171.026 			"/>
			<polygon fill="#C49E76" points="190.295,215.655 185.343,221.37 183.422,223.584 167.335,213.182 168.05,213.05 168.056,213.056 
				168.062,213.05 181.459,210.673 			"/>
			<polygon fill="#C9C4BD" points="188.614,205.025 181.459,210.673 183.914,202.816 			"/>
			<polygon fill="#C49E76" points="187.678,222.648 187.264,226.76 185.415,233.146 185.085,233.26 173.176,226.49 183.422,223.584 
				185.787,221.616 			"/>
			<polygon fill="#C49E76" points="185.787,221.616 183.422,223.584 185.343,221.37 			"/>
			<polygon fill="#C49E76" points="185.085,233.26 171.027,238.032 173.176,226.49 			"/>
			<polygon fill="#F7D2B0" points="185.037,195.451 182.93,198.608 183.914,202.816 177.114,202.107 177.114,202.101 
				178.422,195.031 			"/>
			<polygon fill="#F4EFE9" points="182.066,184.484 184.305,190.937 178.422,195.031 178.416,195.031 175.205,195.031 
				171.027,192.155 171.567,188.578 176.753,184.712 			"/>
			<polygon fill="#EFCA9E" points="183.914,202.816 181.459,210.673 168.062,213.05 177.114,202.107 			"/>
			<polygon fill="#EFCA9E" points="183.422,223.584 173.176,226.49 172.059,226.802 163.08,228.212 160.691,227.51 167.335,213.182 
							"/>
			<polygon fill="#8E7349" points="178.416,166.621 178.434,166.777 165.319,168.307 171.567,154.346 			"/>
			<polygon fill="#F7D2B0" points="178.422,195.031 177.114,202.101 168.056,201.159 177.108,195.943 178.416,195.031 			"/>
			<polygon fill="#EFCA9E" points="178.416,195.031 177.108,195.943 168.056,201.159 171.027,192.155 175.205,195.031 			"/>
			<polygon fill="#C49E76" points="177.114,202.101 177.114,202.107 168.062,213.05 168.05,213.05 158.326,205.433 158.236,205.211 
				168.056,201.159 			"/>
			<polygon fill="#F7D2B0" points="176.753,184.712 171.567,188.578 168.692,187.101 171.027,184.952 			"/>
			<polygon fill="#C49E76" points="173.176,226.49 171.027,238.032 163.08,235.085 163.08,228.212 172.059,226.802 			"/>
			<polygon fill="#EFCA9E" points="172.72,171.026 167.335,177.425 159.652,170.36 165.319,168.307 			"/>
			<polygon fill="#B3996B" points="171.567,154.346 165.319,168.307 159.652,170.36 145.732,164.034 145.726,164.034 
				145.726,164.028 153.134,150.834 171.561,154.346 			"/>
			<polygon fill="#C49E76" points="171.567,188.578 171.027,192.155 168.056,201.159 160.463,201.447 158.026,196.921 
				168.692,187.101 			"/>
			<polygon fill="#8E7349" points="161.393,136.122 171.561,154.346 153.134,150.834 			"/>
			<polygon fill="#F7D2B0" points="167.335,177.425 171.027,184.952 168.692,187.101 158.026,196.921 			"/>
			<polygon fill="#C49E76" points="168.056,201.159 158.236,205.211 148.067,209.407 150.366,201.831 160.463,201.447 			"/>
			<polygon fill="#F7D2B0" points="168.05,213.05 167.335,213.182 166.447,213.338 156.909,216.844 153.398,216.844 
				158.326,205.433 			"/>
			<polygon fill="#C9C4BD" points="167.335,177.425 158.026,196.921 153.398,191.381 159.01,183.734 			"/>
			<polygon fill="#C49E76" points="167.335,213.182 160.691,227.51 156.207,221.34 156.909,216.844 166.447,213.338 			"/>
			<polygon fill="#EFCA9E" points="167.335,177.425 159.01,183.734 154.874,179.178 159.652,170.36 			"/>
			<polygon fill="#3D393B" points="146.243,63.36 161.393,88.426 145.186,82.478 			"/>
			<polygon fill="#B3996B" points="161.393,136.122 153.134,150.834 137.167,147.791 143.253,134.351 			"/>
			<polygon fill="#3D393B" points="161.393,88.426 143.65,97.886 132.779,91.169 			"/>
			<polygon fill="#232022" points="161.393,88.426 132.779,91.169 122.389,92.166 145.186,82.478 			"/>
			<polygon fill="#D8BF95" points="161.393,136.122 143.253,134.351 150.937,117.388 			"/>
			<polygon fill="#F7D2B0" points="158.026,196.921 160.463,201.447 150.366,201.831 139.508,197.624 145.618,197.624 			"/>
			<polygon fill="#8E7349" points="159.652,170.36 154.874,179.178 154.286,180.27 150.366,172.827 145.732,164.034 			"/>
			<polygon fill="#F7D2B0" points="154.874,179.178 159.01,183.734 153.398,191.381 148.133,192.576 145.618,192.576 
				147.623,189.736 150.366,185.841 154.286,180.27 			"/>
			<polygon fill="#F7D2B0" points="158.236,205.211 158.326,205.433 153.398,216.844 148.067,209.407 			"/>
			<polygon fill="#F7D2B0" points="153.398,191.381 158.026,196.921 145.618,197.624 145.618,192.576 148.133,192.576 			"/>
			<polygon fill="#91887D" points="150.366,172.827 154.286,180.27 150.366,185.841 			"/>
			<polygon fill="#D8BF95" points="153.134,150.834 145.726,164.028 137.167,147.791 			"/>
			<polygon fill="#8E7349" points="140.876,99.369 150.937,117.388 135.642,114.669 			"/>
			<polygon fill="#B3996B" points="150.937,117.388 143.253,134.351 129.37,132.995 135.642,114.669 			"/>
			<polygon fill="#EFCA9E" points="150.366,172.827 150.366,185.841 147.623,189.736 140.876,187.101 			"/>
			<polygon fill="#C49E76" points="147.623,189.736 145.618,192.576 145.618,197.624 139.508,197.624 140.876,187.101 			"/>
			<polygon fill="#686768" points="146.243,63.36 145.186,82.478 122.389,92.166 122.389,92.088 128.493,84.74 			"/>
			<polygon fill="#969696" points="146.243,63.36 128.493,84.74 123.757,75.004 			"/>
			<polygon fill="#232022" points="143.65,97.886 140.876,99.369 122.767,109.027 122.389,92.172 122.389,92.166 132.779,91.169 			
				"/>
			<polygon fill="#B3996B" points="143.253,134.351 137.167,147.791 129.37,132.995 			"/>
			<polygon fill="#D8BF95" points="140.876,99.369 135.642,114.669 118.061,111.542 122.767,109.027 			"/>
			<polygon fill="#D8BF95" points="135.642,114.669 129.37,132.995 118.061,111.542 			"/>
			<polygon fill="#686768" points="123.757,75.004 128.493,84.74 122.389,92.088 106.68,83.846 			"/>
			<polygon fill="#605D5F" points="122.389,92.172 122.767,109.027 118.061,111.542 96.854,122.844 122.293,92.208 122.377,92.172 
				122.383,92.172 			"/>
			<polygon fill="#3D393B" points="122.389,92.166 122.389,92.172 122.383,92.172 			"/>
			<polygon fill="#7C7B7C" points="122.389,92.088 122.317,92.178 83.384,95.911 106.68,83.846 			"/>
			<polygon fill="#605D5F" points="122.317,92.178 122.293,92.208 96.854,103.012 83.384,95.911 			"/>
			<polygon fill="#3D393B" points="122.293,92.208 96.854,122.844 96.854,103.012 			"/>
			<polygon fill="#7C7B7C" points="96.854,103.012 96.854,122.844 83.384,95.911 			"/>
		</g>
		<g>
			
				<line fill="none" stroke="#000000" stroke-width="0.25" stroke-linejoin="round" stroke-miterlimit="10" x1="196.61" y1="202.672" x2="196.61" y2="202.678"/>
			
				<line fill="none" stroke="#000000" stroke-width="0.25" stroke-linejoin="round" stroke-miterlimit="10" x1="193.512" y1="201.159" x2="193.506" y2="201.159"/>
			
				<line fill="none" stroke="#000000" stroke-width="0.25" stroke-linejoin="round" stroke-miterlimit="10" x1="178.416" y1="166.621" x2="178.434" y2="166.777"/>
			
				<line fill="none" stroke="#000000" stroke-width="0.25" stroke-linejoin="round" stroke-miterlimit="10" x1="145.186" y1="82.478" x2="161.393" y2="88.426"/>
			
				<line fill="none" stroke="#000000" stroke-width="0.25" stroke-linejoin="round" stroke-miterlimit="10" x1="158.236" y1="205.211" x2="158.326" y2="205.433"/>
			<polyline fill="none" stroke="#000000" stroke-width="0.25" stroke-linejoin="round" stroke-miterlimit="10" points="
				146.243,63.36 145.186,82.478 122.389,92.166 122.389,92.088 			"/>
			
				<line fill="none" stroke="#000000" stroke-width="0.25" stroke-linejoin="round" stroke-miterlimit="10" x1="132.779" y1="91.169" x2="143.65" y2="97.886"/>
			
				<line fill="none" stroke="#000000" stroke-width="0.25" stroke-linejoin="round" stroke-miterlimit="10" x1="123.757" y1="75.004" x2="128.493" y2="84.74"/>
			
				<line fill="none" stroke="#000000" stroke-width="0.25" stroke-linejoin="round" stroke-miterlimit="10" x1="122.383" y1="92.172" x2="122.389" y2="92.166"/>
			
				<line fill="none" stroke="#000000" stroke-width="0.25" stroke-linejoin="round" stroke-miterlimit="10" x1="122.293" y1="92.208" x2="122.377" y2="92.172"/>
			
				<line fill="none" stroke="#000000" stroke-width="0.25" stroke-linejoin="round" stroke-miterlimit="10" x1="122.389" y1="92.172" x2="122.767" y2="109.027"/>
			
				<line fill="none" stroke="#000000" stroke-width="0.25" stroke-linejoin="round" stroke-miterlimit="10" x1="106.68" y1="83.846" x2="122.389" y2="92.088"/>
			
				<line fill="none" stroke="#000000" stroke-width="0.25" stroke-linejoin="round" stroke-miterlimit="10" x1="96.854" y1="103.012" x2="122.293" y2="92.208"/>
			<polyline fill="none" stroke="#000000" stroke-width="0.25" stroke-linejoin="round" stroke-miterlimit="10" points="
				83.384,95.911 96.854,103.012 96.854,122.844 			"/>
			<polyline fill="none" stroke="#000000" stroke-width="0.25" stroke-linejoin="round" stroke-miterlimit="10" points="
				96.854,122.844 118.061,111.542 122.767,109.027 140.876,99.369 143.65,97.886 161.393,88.426 146.243,63.36 123.757,75.004 
				106.68,83.846 83.384,95.911 			"/>
			<polyline fill="none" stroke="#000000" stroke-width="0.25" stroke-linejoin="round" stroke-miterlimit="10" points="
				145.726,164.028 137.167,147.791 129.37,132.995 118.061,111.542 135.642,114.669 150.937,117.388 143.253,134.351 
				137.167,147.791 153.134,150.834 171.561,154.346 			"/>
			<polyline fill="none" stroke="#000000" stroke-width="0.25" stroke-linejoin="round" stroke-miterlimit="10" points="
				171.567,154.346 165.319,168.307 159.652,170.36 154.874,179.178 154.286,180.27 150.366,172.827 145.732,164.034 			"/>
			<polyline fill="none" stroke="#000000" stroke-width="0.25" stroke-linejoin="round" stroke-miterlimit="10" points="
				178.416,166.621 171.567,154.346 171.561,154.346 161.393,136.122 150.937,117.388 140.876,99.369 135.642,114.669 
				129.37,132.995 143.253,134.351 161.393,136.122 153.134,150.834 145.726,164.028 145.726,164.034 145.732,164.034 
				159.652,170.36 167.335,177.425 159.01,183.734 			"/>
			<path fill="none" stroke="#000000" stroke-width="0.25" stroke-linejoin="round" stroke-miterlimit="10" d="M191.604,193.164
				c-1.116-0.78-3.523-2.461-3.74-2.599c-0.282-0.192-3.559,0.372-3.559,0.372l-2.239-6.453l-5.312,0.228l-5.726,0.24l-3.692-7.527"
				/>
			<path fill="none" stroke="#000000" stroke-width="0.25" stroke-linejoin="round" stroke-miterlimit="10" d="M191.61,193.164
				c0.336,0.24,0.552,0.396,0.552,0.396l1.351,7.599l0.06,0.348l3.037,1.164l0.606,0.234l2.059,5.804l12.761,20.961l2.953,4.856
				l13.308-5.18l1.843-0.714l6.735-3.085h20.204v-10.738v-9.376v-29.274l-13.746,4.112l-16.843,2.623l-8.974-5.048l-3.421-1.687
				l-22.257-10.943l-13.404,1.561l-13.115,1.531l7.401,2.719l18.134,6.675l-2.989,12.863"/>
			<polyline fill="none" stroke="#000000" stroke-width="0.25" stroke-linejoin="round" stroke-miterlimit="10" points="
				154.286,180.27 150.366,185.841 147.623,189.736 145.618,192.576 145.618,197.624 158.026,196.921 168.692,187.101 
				171.027,184.952 			"/>
			<polyline fill="none" stroke="#000000" stroke-width="0.25" stroke-linejoin="round" stroke-miterlimit="10" points="
				163.08,228.212 172.059,226.802 173.176,226.49 183.422,223.584 185.787,221.616 192.684,215.865 194.059,216.844 
				196.61,218.674 196.61,224.419 194.083,227.612 191.279,231.16 185.415,233.146 185.085,233.26 171.027,238.032 163.08,235.085 
				163.08,228.212 160.691,227.51 156.207,221.34 156.909,216.844 153.398,216.844 148.067,209.407 150.366,201.831 
				139.508,197.624 140.876,187.101 150.366,172.827 150.366,185.841 			"/>
			<polyline fill="none" stroke="#000000" stroke-width="0.25" stroke-linejoin="round" stroke-miterlimit="10" points="
				188.614,205.025 181.459,210.673 168.062,213.05 168.05,213.05 167.335,213.182 166.447,213.338 156.909,216.844 			"/>
			
				<line fill="none" stroke="#000000" stroke-width="0.25" stroke-linejoin="round" stroke-miterlimit="10" x1="193.506" y1="201.159" x2="188.62" y2="205.025"/>
			
				<line fill="none" stroke="#000000" stroke-width="0.25" stroke-linejoin="round" stroke-miterlimit="10" x1="178.422" y1="195.031" x2="184.305" y2="190.937"/>
			<polyline fill="none" stroke="#000000" stroke-width="0.25" stroke-linejoin="round" stroke-miterlimit="10" points="
				150.366,201.831 160.463,201.447 168.056,201.159 177.108,195.943 178.416,195.031 			"/>
			<polyline fill="none" stroke="#000000" stroke-width="0.25" stroke-linejoin="round" stroke-miterlimit="10" points="
				191.604,193.164 185.037,195.451 182.93,198.608 183.914,202.816 188.614,205.025 188.62,205.025 			"/>
			<polyline fill="none" stroke="#000000" stroke-width="0.25" stroke-linejoin="round" stroke-miterlimit="10" points="
				208.759,211.033 214.989,234.527 222.378,245.001 213.213,254.167 198.807,259.966 192.072,246.682 185.343,233.405 			"/>
			<polyline fill="none" stroke="#000000" stroke-width="0.25" stroke-linejoin="round" stroke-miterlimit="10" points="
				246.28,193.836 230.284,205.433 212.042,189.868 208.759,211.027 			"/>
			<path fill="none" stroke="#000000" stroke-width="0.25" stroke-linejoin="round" stroke-miterlimit="10" d="M257.079,205.433
				h-0.006c-0.882,0-10.793-11.591-10.793-11.591"/>
			<polyline fill="none" stroke="#000000" stroke-width="0.25" stroke-linejoin="round" stroke-miterlimit="10" points="
				196.61,202.678 190.787,206.603 188.89,211.579 190.295,215.655 192.684,215.865 198.855,211.375 199.275,208.71 
				208.759,211.027 208.759,211.033 208.765,211.033 218.777,213.482 230.284,206.741 246.28,205.967 246.286,205.967 
				257.073,205.433 			"/>
			<polyline fill="none" stroke="#000000" stroke-width="0.25" stroke-linejoin="round" stroke-miterlimit="10" points="
				194.059,216.844 187.678,222.648 187.264,226.76 190.667,228.723 194.083,227.612 			"/>
			<polyline fill="none" stroke="#000000" stroke-width="0.25" stroke-linejoin="round" stroke-miterlimit="10" points="
				154.874,179.178 159.01,183.734 153.398,191.381 148.133,192.576 145.618,192.576 			"/>
			<path fill="none" stroke="#000000" stroke-width="0.25" stroke-linejoin="round" stroke-miterlimit="10" d="M257.079,176.159
				l-10.799,17.677l-19.79-10.943l0.36,0.84l3.433,7.995v13.704v1.309l6.453,8.139c0,0-0.282,9.262,0.138,10.666"/>
			<polyline fill="none" stroke="#000000" stroke-width="0.25" stroke-linejoin="round" stroke-miterlimit="10" points="
				230.284,191.729 246.28,193.836 246.28,193.842 246.286,205.955 246.286,205.967 252.943,218.044 257.079,225.547 			"/>
			<polyline fill="none" stroke="#000000" stroke-width="0.25" stroke-linejoin="round" stroke-miterlimit="10" points="
				191.838,165.216 172.72,171.026 167.335,177.425 190.853,177.701 205.091,185.877 212.042,189.868 218.777,213.482 
				228.297,229.347 236.736,214.881 246.28,205.967 246.286,205.955 			"/>
			<polyline fill="none" stroke="#000000" stroke-width="0.25" stroke-linejoin="round" stroke-miterlimit="10" points="
				226.85,183.734 218.987,186.993 212.042,189.868 204.113,196.843 197.216,202.906 			"/>
			<polyline fill="none" stroke="#000000" stroke-width="0.25" stroke-linejoin="round" stroke-miterlimit="10" points="
				182.066,184.484 190.853,177.701 191.838,165.216 218.777,186.645 218.987,186.993 230.284,205.433 			"/>
			<polyline fill="none" stroke="#000000" stroke-width="0.25" stroke-linejoin="round" stroke-miterlimit="10" points="
				191.279,231.16 212.036,229.671 192.072,246.682 213.213,254.167 			"/>
			<polyline fill="none" stroke="#000000" stroke-width="0.25" stroke-linejoin="round" stroke-miterlimit="10" points="
				177.114,202.107 183.914,202.816 181.459,210.673 190.295,215.655 185.343,221.37 183.422,223.584 167.335,213.182 
				160.691,227.51 			"/>
			<polyline fill="none" stroke="#000000" stroke-width="0.25" stroke-linejoin="round" stroke-miterlimit="10" points="
				148.067,209.407 158.236,205.211 168.056,201.159 177.114,202.101 			"/>
			<polyline fill="none" stroke="#000000" stroke-width="0.25" stroke-linejoin="round" stroke-miterlimit="10" points="
				153.398,216.844 158.326,205.433 168.05,213.05 168.056,213.056 168.062,213.05 177.114,202.107 177.114,202.101 
				178.422,195.031 178.416,195.031 175.205,195.031 171.027,192.155 171.567,188.578 176.753,184.712 			"/>
			
				<line fill="none" stroke="#000000" stroke-width="0.25" stroke-linejoin="round" stroke-miterlimit="10" x1="185.037" y1="195.451" x2="178.422" y2="195.031"/>
			<polyline fill="none" stroke="#000000" stroke-width="0.25" stroke-linejoin="round" stroke-miterlimit="10" points="
				153.398,191.381 158.026,196.921 160.463,201.447 			"/>
			<polyline fill="none" stroke="#000000" stroke-width="0.25" stroke-linejoin="round" stroke-miterlimit="10" points="
				171.027,238.032 173.176,226.49 185.085,233.26 185.343,233.405 185.415,233.146 187.264,226.76 			"/>
			<polyline fill="none" stroke="#000000" stroke-width="0.25" stroke-linejoin="round" stroke-miterlimit="10" points="
				187.678,222.648 185.787,221.616 185.343,221.37 			"/>
			
				<line fill="none" stroke="#000000" stroke-width="0.25" stroke-linejoin="round" stroke-miterlimit="10" x1="140.876" y1="187.101" x2="147.623" y2="189.736"/>
			
				<line fill="none" stroke="#000000" stroke-width="0.25" stroke-linejoin="round" stroke-miterlimit="10" x1="139.508" y1="197.624" x2="145.618" y2="197.624"/>
			
				<line fill="none" stroke="#000000" stroke-width="0.25" stroke-linejoin="round" stroke-miterlimit="10" x1="171.027" y1="192.155" x2="168.056" y2="201.159"/>
			
				<line fill="none" stroke="#000000" stroke-width="0.25" stroke-linejoin="round" stroke-miterlimit="10" x1="168.692" y1="187.101" x2="171.567" y2="188.578"/>
			<polyline fill="none" stroke="#000000" stroke-width="0.25" stroke-linejoin="round" stroke-miterlimit="10" points="
				146.243,63.36 128.493,84.74 122.389,92.088 122.317,92.178 122.293,92.208 96.854,122.844 83.384,95.911 122.317,92.178 
				122.377,92.172 122.383,92.172 122.389,92.172 122.389,92.166 132.779,91.169 161.393,88.426 			"/>
			<polyline fill="none" stroke="#000000" stroke-width="0.25" stroke-linejoin="round" stroke-miterlimit="10" points="
				236.736,214.881 252.943,218.044 257.079,214.809 			"/>
			<polyline fill="none" stroke="#000000" stroke-width="0.25" stroke-linejoin="round" stroke-miterlimit="10" points="
				191.604,193.164 191.61,193.164 205.091,185.877 204.113,196.843 208.759,211.027 208.765,211.033 228.297,229.347 			"/>
			
				<line fill="none" stroke="#000000" stroke-width="0.25" stroke-linejoin="round" stroke-miterlimit="10" x1="158.026" y1="196.921" x2="167.335" y2="177.425"/>
		</g>
	</g>
	<g>
		<path fill="#B23929" d="M167.706,291.488c-72.227,0-130.988-58.761-130.988-130.988S95.479,29.512,167.706,29.512
			S298.694,88.273,298.694,160.5S239.933,291.488,167.706,291.488z M167.706,40.512c-66.162,0-119.988,53.826-119.988,119.988
			s53.826,119.988,119.988,119.988S287.694,226.662,287.694,160.5S233.868,40.512,167.706,40.512z"/>
	</g>
	<g>
		<path fill="#F8EF9D" d="M167.706,303.598c-78.905,0-143.098-64.193-143.098-143.098S88.801,17.402,167.706,17.402
			S310.805,81.595,310.805,160.5S246.611,303.598,167.706,303.598z M167.706,30.402C95.97,30.402,37.608,88.764,37.608,160.5
			c0,71.737,58.362,130.098,130.098,130.098c71.737,0,130.099-58.361,130.099-130.098C297.805,88.764,239.443,30.402,167.706,30.402
			z"/>
	</g>
</g>
</svg>
